<svg xmlns="http://www.w3.org/2000/svg" viewBox="0 0 240 64" fill="none" role="img" aria-label="GH Hostels">
  <defs>
    <radialGradient id="ghw-glow" cx="32" cy="22" r="28" gradientUnits="userSpaceOnUse">
      <stop offset="0%" stop-color="#1B6E54"/>
      <stop offset="100%" stop-color="#0F4C3A"/>
    </radialGradient>
    <linearGradient id="ghw-gold" x1="20" y1="14" x2="44" y2="52" gradientUnits="userSpaceOnUse">
      <stop offset="0%" stop-color="#F5C26B"/>
      <stop offset="55%" stop-color="#D4A24C"/>
      <stop offset="100%" stop-color="#B8842E"/>
    </linearGradient>
  </defs>

  <!-- Mark -->
  <rect width="64" height="64" rx="14" fill="url(#ghw-glow)"/>
  <path d="M14 38 Q14 18 32 14 Q50 18 50 38" stroke="url(#ghw-gold)" stroke-width="3" fill="none" stroke-linecap="round"/>
  <path d="M22 42 Q22 26 32 22 Q42 26 42 42" stroke="#F5E9D2" stroke-width="2" fill="none" stroke-linecap="round" opacity="0.85"/>
  <rect x="22" y="42" width="20" height="2.5" rx="1.25" fill="url(#ghw-gold)"/>
  <path d="M32 28 L33.4 32 L37.6 32 L34.2 34.6 L35.5 38.6 L32 36.2 L28.5 38.6 L29.8 34.6 L26.4 32 L30.6 32 Z" fill="#F5E9D2" opacity="0.95"/>
  <rect x="18" y="46" width="28" height="1.5" rx="0.75" fill="#F5E9D2" opacity="0.35"/>

  <!-- Wordmark: GH-HOSTELS tracked sans, deep forest -->
  <g font-family="'Plus Jakarta Sans', Inter, system-ui, sans-serif">
    <text x="80" y="36" font-size="22" font-weight="700" fill="#0F4C3A" letter-spacing="2.6">GH-HOSTELS</text>
  </g>

  <!-- Gold underline accent under wordmark -->
  <rect x="80" y="44" width="140" height="1.5" rx="0.75" fill="url(#ghw-gold)" opacity="0.6"/>
</svg>
